# xmcd CD database file generated by OrangeCD 6.4
#
# Track frame offsets:
#	150
#	18722
#	36461
#	54078
#	68976
#	80095
#	95970
#
# Disc length: 1414 seconds
#
# Revision: 0
# Processed by: cddbd v1.5.2PL0 Copyright (c) Steve Scherf et al.
# Submitted via: OrangeCD 6.4
#
DISCID=61058407
DTITLE=Left On Red - Left On Red
DYEAR=2009
DGENRE=
TTITLE0=Shop
TTITLE1=Jack And Jill
TTITLE2=Shine
TTITLE3=Grandmer Charmante
TTITLE4=Paradigm
TTITLE5=High Heel Blues
TTITLE6=Crash And Burn
EXTD=
EXTT0=
EXTT1=
EXTT2=
EXTT3=
EXTT4=
EXTT5=
EXTT6=
PLAYORDER=
